<?xml version="1.0" encoding="UTF-8" standalone="no"?>
<svg
   version="1.1"
   width="109.85065"
   height="140.80692"
   class="logo-svg hero-logo-svg"
   id="svg780"
   sodipodi:docname="logo.svg"
   inkscape:version="1.2.1 (9c6d41e410, 2022-07-14)"
   xmlns:inkscape="http://www.inkscape.org/namespaces/inkscape"
   xmlns:sodipodi="http://sodipodi.sourceforge.net/DTD/sodipodi-0.dtd"
   xmlns="http://www.w3.org/2000/svg"
   xmlns:svg="http://www.w3.org/2000/svg">
  <defs
     id="defs784" />
  <sodipodi:namedview
     id="namedview782"
     pagecolor="#ffffff"
     bordercolor="#000000"
     borderopacity="0.25"
     inkscape:showpageshadow="2"
     inkscape:pageopacity="0.0"
     inkscape:pagecheckerboard="0"
     inkscape:deskcolor="#d1d1d1"
     showgrid="false"
     inkscape:zoom="1.7474811"
     inkscape:cx="16.881442"
     inkscape:cy="58.36973"
     inkscape:window-width="1920"
     inkscape:window-height="1009"
     inkscape:window-x="-8"
     inkscape:window-y="-8"
     inkscape:window-maximized="1"
     inkscape:current-layer="svg780" />
  <path
     d="m 9.5142714,54 c 8.2621856,1.594457 16.0628896,4.260181 23.9999996,7 -1.495396,5.755008 -3.117398,11.360748 -5.1875,16.9375 -2.730549,8.181062 -3.311332,15.606556 0.375,23.5625 3.618372,6.29195 8.160525,9.22026 14.871094,11.73047 8.739082,2.28632 16.872212,1.61795 24.855468,-2.55078 6.271959,-5.05046 7.932682,-12.53413 10.273438,-19.92969 0.700757,-2.172219 1.402528,-4.344112 2.105469,-6.515625 0.45669,-1.43521 0.45669,-1.43521 0.922607,-2.899414 C 82.514271,79 82.514271,79 83.514271,77 c 7.785937,1.610884 15.374282,3.765437 22.999999,6 -0.66105,5.762811 -2.02255,11.136253 -3.6875,16.6875 -0.26184,0.87689 -0.52368,1.75377 -0.79346,2.65723 -2.157407,6.97721 -4.879431,13.30532 -8.519039,19.65527 -0.66,0 -1.32,0 -2,0 -0.266836,0.59941 -0.533672,1.19883 -0.808594,1.81641 -3.487918,6.39261 -10.848782,10.12612 -17.191406,13.18359 -0.640664,0.32227 -1.281328,0.64453 -1.941406,0.97656 C 60.070952,142.79341 43.952897,140.78136 32.514271,137 18.045403,131.01976 8.7106321,121.31148 2.5142714,107 c -4.453718,-12.853011 -2.49224354,-26.456163 2,-39 C 4.974644,66.674735 5.4342577,65.349206 5.8931776,64.023438 7.0657735,60.669374 8.278879,57.331509 9.5142714,54 Z"
     fill="#62c7b3"
     id="path18" />
  <path
     d="m 71.514271,0 c 1.42622,0.30787156 2.851897,0.61825963 4.277344,0.9296875 0.793982,0.1725732 1.587964,0.3451465 2.406006,0.5229492 C 81.037208,2.123556 83.769318,3.0146321 86.514271,4 c -1.306261,5.4056746 -2.780175,10.706417 -4.46875,16.003906 -0.236724,0.749092 -0.473448,1.498183 -0.717346,2.269974 -0.768842,2.430327 -1.541259,4.859499 -2.313904,7.28862 -0.534298,1.685672 -1.068477,3.371382 -1.602539,5.057129 C 72.502805,50.098058 67.524977,65.554248 62.514271,81 61.088051,80.692128 59.662375,80.38174 58.236927,80.070312 57.442945,79.897739 56.648963,79.725166 55.830921,79.547363 52.991335,78.876444 50.259224,77.985368 47.514271,77 c 1.539707,-7.673965 3.818782,-15.002907 6.25,-22.4375 0.403315,-1.244106 0.806631,-2.488213 1.222168,-3.77002 2.411026,-7.421726 4.857778,-14.83102 7.345703,-22.227294 C 65.512034,19.082255 68.503377,9.5376323 71.514271,0 Z"
     fill="#e2324f"
     id="path28" />
  <path
     d="m 46.209581,18.875 c 3.600872,1.757713 4.610767,3.486206 6.304688,7.125 0.748329,5.586012 0.982356,10.297249 -1.875,15.25 -2.125,1.75 -2.125,1.75 -4.125,1.75 0,0.66 0,1.32 0,2 -3.67267,2.350509 -6.710921,2.363481 -11.000001,2 C 30.900547,45.727249 28.281475,44.190515 25.576769,40.3125 23.14297,35.934876 22.874702,32.956642 23.514269,28 c 1.293383,-3.736441 2.637278,-5.655414 5.5,-8.375 5.533453,-2.569103 11.384764,-2.636323 17.195312,-0.75 z"
     fill="#e0314e"
     id="path34" />
  <path
     d="m 100.64318,35.97656 c 3.70156,2.222297 6.63621,4.246549 8.8711,8.023438 0.36328,2.65625 0.36328,2.65625 0.3125,5.5 -0.004,0.938437 -0.008,1.876875 -0.0117,2.843749 -0.30315,2.677124 -0.93903,4.355907 -2.30079,6.65625 -0.66,0 -1.32,0 -2,0 -0.33,0.99 -0.66,1.98 -1,3 -4.30197,2.848863 -9.032399,2.643512 -13.999995,2 -3.883831,-1.977222 -6.990506,-4.086774 -9,-8 -1.522897,-6.067975 -1.245272,-10.483038 2,-15.999999 4.866696,-4.623362 10.598846,-7.018878 17.128905,-4.023438 z"
     fill="#e3314e"
     id="path36" />
</svg>
